<svg data-v-423bf9ae="" xmlns="http://www.w3.org/2000/svg" viewBox="0 0 693 90" class="iconLeft"><!----><!----><!----><g data-v-423bf9ae="" id="dfdc3ac7-8608-45ab-9678-85367318d33d" fill="#000000" transform="matrix(6.054490506946714,0,0,6.054490506946714,105.88294237913493,-2.134207672738235)"><path d="M8.82 10.62L8.82 12.26L8.82 12.26Q7.55 12.74 5.95 12.74L5.95 12.74L5.95 12.74Q0.68 12.74 0.68 7.65L0.68 7.65L0.68 7.65Q0.68 2.83 5.95 2.83L5.95 2.83L5.95 2.83Q7.55 2.83 8.82 3.31L8.82 3.31L8.82 4.95L8.82 4.95Q7.55 4.40 6.08 4.40L6.08 4.40L6.08 4.40Q2.56 4.40 2.56 7.65L2.56 7.65L2.56 7.65Q2.56 11.17 6.08 11.17L6.08 11.17L6.08 11.17Q7.55 11.17 8.82 10.62L8.82 10.62ZM11.83 9.06L11.83 9.06Q11.83 11.31 13.57 11.31L13.57 11.31L13.57 11.31Q15.31 11.31 15.31 9.06L15.31 9.06L15.31 9.06Q15.31 6.86 13.57 6.86L13.57 6.86L13.57 6.86Q11.83 6.86 11.83 9.06L11.83 9.06ZM10.01 9.08L10.01 9.08L10.01 9.08Q10.01 5.48 13.57 5.48L13.57 5.48L13.57 5.48Q17.12 5.48 17.12 9.08L17.12 9.08L17.12 9.08Q17.12 12.69 13.57 12.69L13.57 12.69L13.57 12.69Q10.03 12.69 10.01 9.08ZM20.30 12.67L18.49 12.67L18.49 5.50L19.89 5.50L20.12 6.55L20.12 6.55Q21.15 5.50 22.47 5.50L22.47 5.50L22.47 5.50Q25.02 5.50 25.02 8.15L25.02 8.15L25.02 12.67L23.21 12.67L23.21 8.15L23.21 8.15Q23.21 6.96 22.03 6.96L22.03 6.96L22.03 6.96Q21.14 6.96 20.30 7.66L20.30 7.66L20.30 12.67ZM26.63 10.74L26.63 4.33L27.97 4.33L28.24 5.50L30.04 5.50L30.04 6.93L28.44 6.93L28.44 10.23L28.44 10.23Q28.44 11.24 29.31 11.24L29.31 11.24L30.04 11.24L30.04 12.67L28.43 12.67L28.43 12.67Q26.63 12.67 26.63 10.74L26.63 10.74ZM33.09 12.67L31.27 12.67L31.27 5.50L32.68 5.50L32.90 6.41L32.90 6.41Q33.84 5.50 34.90 5.50L34.90 5.50L34.90 6.96L34.90 6.96Q33.89 6.96 33.09 7.80L33.09 7.80L33.09 12.67ZM35.58 10.44L35.58 10.44L35.58 10.44Q35.58 8.30 38.70 8.30L38.70 8.30L38.70 8.30Q39.43 8.30 40.16 8.44L40.16 8.44L40.16 7.90L40.16 7.90Q40.16 6.93 38.77 6.93L38.77 6.93L38.77 6.93Q37.60 6.93 36.16 7.27L36.16 7.27L36.16 5.84L36.16 5.84Q37.60 5.50 38.77 5.50L38.77 5.50L38.77 5.50Q41.97 5.50 41.97 7.86L41.97 7.86L41.97 12.67L40.92 12.67L40.28 12.03L40.28 12.03Q39.34 12.67 38.21 12.67L38.21 12.67L38.21 12.67Q35.58 12.67 35.58 10.44ZM40.16 9.67L40.16 9.67Q39.48 9.53 38.70 9.53L38.70 9.53L38.70 9.53Q37.39 9.53 37.39 10.42L37.39 10.42L37.39 10.42Q37.39 11.38 38.49 11.38L38.49 11.38L38.49 11.38Q39.39 11.38 40.16 10.81L40.16 10.81L40.16 9.67ZM43.58 10.74L43.58 4.33L44.92 4.33L45.19 5.50L47.00 5.50L47.00 6.93L45.39 6.93L45.39 10.23L45.39 10.23Q45.39 11.24 46.26 11.24L46.26 11.24L47.00 11.24L47.00 12.67L45.38 12.67L45.38 12.67Q43.58 12.67 43.58 10.74L43.58 10.74ZM51.26 5.50L51.26 5.50L51.26 5.50Q54.52 5.50 54.52 8.83L54.52 8.83L54.52 8.83Q54.52 9.28 54.46 9.72L54.46 9.72L49.70 9.72L49.70 9.72Q49.70 11.24 51.93 11.24L51.93 11.24L51.93 11.24Q53.01 11.24 54.10 11.03L54.10 11.03L54.10 12.47L54.10 12.47Q53.15 12.67 51.79 12.67L51.79 12.67L51.79 12.67Q47.89 12.67 47.89 9.00L47.89 9.00L47.89 9.00Q47.89 5.50 51.26 5.50ZM49.70 8.46L49.70 8.46L52.76 8.46L52.76 8.41L52.76 8.41Q52.76 6.92 51.26 6.92L51.26 6.92L51.26 6.92Q49.82 6.92 49.70 8.46ZM60.43 9.06L60.43 9.06Q60.43 11.31 62.17 11.31L62.17 11.31L62.17 11.31Q63.92 11.31 63.92 9.06L63.92 9.06L63.92 9.06Q63.92 6.86 62.17 6.86L62.17 6.86L62.17 6.86Q60.43 6.86 60.43 9.06L60.43 9.06ZM58.62 9.08L58.62 9.08L58.62 9.08Q58.62 5.48 62.17 5.48L62.17 5.48L62.17 5.48Q65.73 5.48 65.73 9.08L65.73 9.08L65.73 9.08Q65.73 12.69 62.17 12.69L62.17 12.69L62.17 12.69Q58.63 12.69 58.62 9.08ZM68.91 12.67L67.09 12.67L67.09 5.50L68.50 5.50L68.72 6.55L68.72 6.55Q69.75 5.50 71.07 5.50L71.07 5.50L71.07 5.50Q73.62 5.50 73.62 8.15L73.62 8.15L73.62 12.67L71.81 12.67L71.81 8.15L71.81 8.15Q71.81 6.96 70.63 6.96L70.63 6.96L70.63 6.96Q69.75 6.96 68.91 7.66L68.91 7.66L68.91 12.67ZM75.33 2.90L77.14 2.90L77.14 12.67L75.33 12.67L75.33 2.90ZM78.85 2.90L80.66 2.90L80.66 4.33L78.85 4.33L78.85 2.90ZM78.85 5.50L80.66 5.50L80.66 12.67L78.85 12.67L78.85 5.50ZM84.18 12.67L82.37 12.67L82.37 5.50L83.77 5.50L84 6.55L84 6.55Q85.03 5.50 86.35 5.50L86.35 5.50L86.35 5.50Q88.90 5.50 88.90 8.15L88.90 8.15L88.90 12.67L87.09 12.67L87.09 8.15L87.09 8.15Q87.09 6.96 85.91 6.96L85.91 6.96L85.91 6.96Q85.03 6.96 84.18 7.66L84.18 7.66L84.18 12.67ZM93.64 5.50L93.64 5.50L93.64 5.50Q96.91 5.50 96.91 8.83L96.91 8.83L96.91 8.83Q96.91 9.28 96.84 9.72L96.84 9.72L92.08 9.72L92.08 9.72Q92.08 11.24 94.31 11.24L94.31 11.24L94.31 11.24Q95.40 11.24 96.48 11.03L96.48 11.03L96.48 12.47L96.48 12.47Q95.53 12.67 94.17 12.67L94.17 12.67L94.17 12.67Q90.27 12.67 90.27 9.00L90.27 9.00L90.27 9.00Q90.27 5.50 93.64 5.50ZM92.08 8.46L92.08 8.46L95.14 8.46L95.14 8.41L95.14 8.41Q95.14 6.92 93.64 6.92L93.64 6.92L93.64 6.92Q92.20 6.92 92.08 8.46Z"></path></g><defs data-v-423bf9ae=""><linearGradient data-v-423bf9ae="" gradientTransform="rotate(25)" id="106de162-53b2-4dd1-9b34-b976917ffc80" x1="0%" y1="0%" x2="100%" y2="0%"><stop data-v-423bf9ae="" offset="0%" style="stop-color: rgb(13, 124, 233); stop-opacity: 1;"></stop><stop data-v-423bf9ae="" offset="100%" style="stop-color: rgb(21, 207, 241); stop-opacity: 1;"></stop></linearGradient></defs><g data-v-423bf9ae="" id="bb444f5c-61f4-4d4d-9e75-c084067efa7c" transform="matrix(2.8125,0,0,2.8125,0,0)" stroke="none" fill="url(#106de162-53b2-4dd1-9b34-b976917ffc80)"><path d="M32 0H0v32h32V0zm-8.677 20.802l-2.52 2.52L16 28.125l-2.52-2.52 4.802-4.802L16 18.52l-4.802 4.802-2.52-2.52L13.48 16l-2.282-2.282-4.803 4.802L3.875 16l4.802-4.802 2.52-2.52L16 3.875l2.52 2.52-4.802 4.802L16 13.48l4.802-4.802 2.52 2.52L18.52 16l2.282 2.282 4.802-4.802 2.52 2.52-4.801 4.802z"></path></g><!----></svg>